<?xml version="1.0" encoding="utf-8"?>
<!-- Generator: Adobe Illustrator 23.1.0, SVG Export Plug-In . SVG Version: 6.00 Build 0)  -->
<svg version="1.1" id="图层_1" xmlns="http://www.w3.org/2000/svg" xmlns:xlink="http://www.w3.org/1999/xlink" x="0px" y="0px"
	 viewBox="-40 -40 900 900" style="enable-background:new 0 0 1800 1800;" xml:space="preserve">
<style type="text/css">
	.st0{fill-rule:evenodd;clip-rule:evenodd;fill:none;stroke:#333333;stroke-width:10;stroke-miterlimit:20;}
</style>
<path class="st0" d="M215.97,0c16,0,32,0,47.99,0c0,23.99,0,48,0,71.99c16,0,32,0,47.99,0c0-23.99,0-48,0-71.99c16,0,32,0,47.99,0
	c0,23.99,0,48,0,71.99c16,0,32,0,47.99,0c0-23.99,0-48,0-71.99c16,0,32,0,47.99,0c0,23.99,0,48,0,71.99c16,0,32,0,47.99,0
	c0-23.99,0-48,0-71.99c16,0,32,0,47.99,0c0,23.99,0,48,0,71.99c16,0,32,0,47.99,0c0-23.99,0-48,0-71.99c16,0,32,0,47.99,0
	c0,23.99,0,48,0,71.99c31.99,0,64,0,95.99,0c0,23.99,0,48,0,71.99c23.99,0,48,0,71.99,0c0,16,0,32,0,47.99c-23.99,0-48,0-71.99,0
	c0,16,0,32,0,47.99c23.99,0,48,0,71.99,0c0,16,0,32,0,47.99c-23.99,0-48,0-71.99,0c0,16,0,32,0,47.99c23.99,0,48,0,71.99,0
	c0,16,0,32,0,47.99c-23.99,0-48,0-71.99,0c0,16,0,32,0,47.99c23.99,0,48,0,71.99,0c0,16,0,32,0,47.99c-23.99,0-48,0-71.99,0
	c0,16,0,32,0,47.99c23.99,0,48,0,71.99,0c0,16,0,32,0,47.99c-23.99,0-48,0-71.99,0c0,16,0,32,0,47.99c23.99,0,48,0,71.99,0
	c0,16,0,32,0,47.99c-23.99,0-48,0-71.99,0c0,23.99,0,48,0,71.99c-23.99,0-48,0-71.99,0c0,23.99,0,48,0,71.99c-16,0-32,0-47.99,0
	c0-23.99,0-48,0-71.99c-16,0-32,0-47.99,0c0,23.99,0,48,0,71.99c-16,0-32,0-47.99,0c0-23.99,0-48,0-71.99c-16,0-32,0-47.99,0
	c0,23.99,0,48,0,71.99c-16,0-32,0-47.99,0c0-23.99,0-48,0-71.99c-16,0-32,0-47.99,0c0,23.99,0,48,0,71.99c-16,0-32,0-47.99,0
	c0-23.99,0-48,0-71.99c-16,0-32,0-47.99,0c0,23.99,0,48,0,71.99c-16,0-32,0-47.99,0c0-23.99,0-48,0-71.99c-16,0-32,0-47.99,0
	c0,23.99,0,48,0,71.99c-16,0-32,0-47.99,0c0-23.99,0-48,0-71.99c-23.99,0-48,0-71.99,0c0-31.99,0-64,0-95.99c-23.99,0-48,0-71.99,0
	c0-16,0-32,0-47.99c23.99,0,48,0,71.99,0c0-16,0-32,0-47.99c-23.99,0-48,0-71.99,0c0-16,0-32,0-47.99c23.99,0,48,0,71.99,0
	c0-16,0-32,0-47.99c-23.99,0-48,0-71.99,0c0-16,0-32,0-47.99c23.99,0,48,0,71.99,0c0-16,0-32,0-47.99c-23.99,0-48,0-71.99,0
	c0-16,0-32,0-47.99c23.99,0,48,0,71.99,0c0-16,0-32,0-47.99c-23.99,0-48,0-71.99,0c0-16,0-32,0-47.99c23.99,0,48,0,71.99,0
	c0-23.99,0-48,0-71.99c0,0,31.25-31.25,71.99-71.99c23.99,0,48,0,71.99,0C215.97,48,215.97,23.99,215.97,0z"/>
<path class="st0" d="M191.98,143.98l-47.99,47.99c0,159.96,0,319.98,0,479.94c175.96,0,351.97,0,527.93,0
	c0-175.96,0-351.97,0-527.93C511.95,143.98,351.94,143.98,191.98,143.98z"/>
</svg>
